<?xml version="1.0" encoding="UTF-8" standalone="no"?>
<!-- Created with Inkscape (http://www.inkscape.org/) -->

<svg
   xmlns:dc="http://purl.org/dc/elements/1.1/"
   xmlns:cc="http://creativecommons.org/ns#"
   xmlns:rdf="http://www.w3.org/1999/02/22-rdf-syntax-ns#"
   xmlns:svg="http://www.w3.org/2000/svg"
   xmlns="http://www.w3.org/2000/svg"
   xmlns:sodipodi="http://sodipodi.sourceforge.net/DTD/sodipodi-0.dtd"
   xmlns:inkscape="http://www.inkscape.org/namespaces/inkscape"
   width="1052.3622"
   height="744.09448"
   id="svg2"
   version="1.1"
   inkscape:version="0.48.4 r9939"
   sodipodi:docname="citydesign.svg">
  <defs
     id="defs4" />
  <sodipodi:namedview
     id="base"
     pagecolor="#ffffff"
     bordercolor="#666666"
     borderopacity="1.0"
     inkscape:pageopacity="0.0"
     inkscape:pageshadow="2"
     inkscape:zoom="0.0875"
     inkscape:cx="5492.6032"
     inkscape:cy="-3506.8787"
     inkscape:document-units="px"
     inkscape:current-layer="layer1"
     showgrid="true"
     inkscape:snap-global="true"
     inkscape:snap-bbox="true"
     inkscape:window-width="1280"
     inkscape:window-height="961"
     inkscape:window-x="-8"
     inkscape:window-y="-8"
     inkscape:window-maximized="1"
     showborder="false"
     borderlayer="false">
    <inkscape:grid
       type="xygrid"
       id="grid2987"
       empspacing="5"
       visible="true"
       enabled="true"
       snapvisiblegridlinesonly="true" />
  </sodipodi:namedview>
  <metadata
     id="metadata7">
    <rdf:RDF>
      <cc:Work
         rdf:about="">
        <dc:format>image/svg+xml</dc:format>
        <dc:type
           rdf:resource="http://purl.org/dc/dcmitype/StillImage" />
        <dc:title></dc:title>
      </cc:Work>
    </rdf:RDF>
  </metadata>
  <g
     inkscape:label="Layer 1"
     inkscape:groupmode="layer"
     id="layer1"
     transform="translate(0,-308.2677)">
    <path
       style="fill:#0000ff;fill-rule:evenodd;stroke:none"
       d="m 360,2492.3622 c 0,88.3655 -71.63445,160 -160,160 l 160,0 0,-160 z"
       id="path3781"
       inkscape:connector-curvature="0" />
    <path
       style="fill:#0000ff;fill-rule:evenodd;stroke:none"
       d="m 20,2672.3622 160,0 c 0,87.3734 -71.62769,158.2227 -160,158.2227 l 0,-158.2227 z"
       id="rect2989"
       inkscape:connector-curvature="0" />
    <rect
       style="fill:#0000ff;fill-opacity:1;stroke:none"
       id="rect3820"
       width="160"
       height="160"
       x="580"
       y="2492.3621" />
    <path
       style="fill:#0000ff;fill-rule:evenodd;stroke:none"
       d="m 0,2672.3622 0,160 c -87.37346,0 -158.22275,-71.6277 -158.22275,-160 l 158.22275,0 z"
       id="rect2989-0"
       inkscape:connector-curvature="0" />
    <path
       style="fill:#0000ff;fill-rule:evenodd;stroke:none"
       d="m 20,2652.3622 0,-160 c 87.37346,0 158.22274,71.6277 158.22274,160 l -158.22274,0 z"
       id="rect2989-9"
       inkscape:connector-curvature="0" />
    <path
       style="fill:#0000ff;fill-rule:evenodd;stroke:none"
       d="m 0,2652.3622 -160,0 c 0,-87.3735 71.62769,-158.2228 160,-158.2228 l 0,158.2228 z"
       id="rect2989-4"
       inkscape:connector-curvature="0" />
    <path
       style="fill:#0000ff;fill-rule:evenodd;stroke:none"
       d="m 360,2832.3622 c 0,-88.3656 -71.63445,-160 -160,-160 l 160,0 0,160 z"
       id="path3781-8"
       inkscape:connector-curvature="0" />
    <path
       style="fill:#0000ff;fill-rule:evenodd;stroke:none"
       d="m 380,2492.3622 c 0,88.3656 71.63445,160 160,160 l -160,0 0,-160 z"
       id="path3781-82"
       inkscape:connector-curvature="0" />
    <path
       style="fill:#0000ff;fill-rule:evenodd;stroke:none"
       d="m 380,2832.3622 c 0,-88.3656 71.63445,-160 160,-160 l -160,0 0,160 z"
       id="path3781-4"
       inkscape:connector-curvature="0" />
    <path
       style="fill:#00ff00;fill-opacity:1;fill-rule:evenodd;stroke:none"
       d="m 360,2012.3622 c 0,88.3655 -71.63445,160 -160,160 l 160,0 0,-160 z"
       id="path3781-5"
       inkscape:connector-curvature="0" />
    <path
       style="fill:#00ff00;fill-opacity:1;fill-rule:evenodd;stroke:none"
       d="m 20,2192.3622 160,0 c 0,87.3734 -71.62769,158.2227 -160,158.2227 l 0,-158.2227 z"
       id="rect2989-5"
       inkscape:connector-curvature="0" />
    <rect
       style="fill:#00ff00;fill-opacity:1;stroke:none"
       id="rect3820-1"
       width="160"
       height="160"
       x="580"
       y="2012.3622" />
    <path
       style="fill:#00ff00;fill-opacity:1;fill-rule:evenodd;stroke:none"
       d="m 0,2192.3622 0,160 c -87.37346,0 -158.22275,-71.6277 -158.22275,-160 l 158.22275,0 z"
       id="rect2989-0-7"
       inkscape:connector-curvature="0" />
    <path
       style="fill:#00ff00;fill-opacity:1;fill-rule:evenodd;stroke:none"
       d="m 20,2172.3622 0,-160 c 87.37346,0 158.22274,71.6277 158.22274,160 l -158.22274,0 z"
       id="rect2989-9-1"
       inkscape:connector-curvature="0" />
    <path
       style="fill:#00ff00;fill-opacity:1;fill-rule:evenodd;stroke:none"
       d="m 0,2172.3622 -160,0 c 0,-87.3735 71.62769,-158.2228 160,-158.2228 l 0,158.2228 z"
       id="rect2989-4-1"
       inkscape:connector-curvature="0" />
    <path
       style="fill:#00ff00;fill-opacity:1;fill-rule:evenodd;stroke:none"
       d="m 360,2352.3622 c 0,-88.3656 -71.63445,-160 -160,-160 l 160,0 0,160 z"
       id="path3781-8-5"
       inkscape:connector-curvature="0" />
    <path
       style="fill:#00ff00;fill-opacity:1;fill-rule:evenodd;stroke:none"
       d="m 380,2012.3622 c 0,88.3656 71.63445,160 160,160 l -160,0 0,-160 z"
       id="path3781-82-2"
       inkscape:connector-curvature="0" />
    <path
       style="fill:#00ff00;fill-opacity:1;fill-rule:evenodd;stroke:none"
       d="m 380,2352.3622 c 0,-88.3656 71.63445,-160 160,-160 l -160,0 0,160 z"
       id="path3781-4-7"
       inkscape:connector-curvature="0" />
    <path
       style="fill:#ff0000;fill-opacity:1;fill-rule:evenodd;stroke:none"
       d="m 360,1532.3622 c 0,88.3655 -71.63445,160 -160,160 l 160,0 0,-160 z"
       id="path3781-6"
       inkscape:connector-curvature="0" />
    <path
       style="fill:#ff0000;fill-opacity:1;fill-rule:evenodd;stroke:none"
       d="m 20,1712.3622 160,0 c 0,87.3734 -71.62769,158.2227 -160,158.2227 l 0,-158.2227 z"
       id="rect2989-1"
       inkscape:connector-curvature="0" />
    <rect
       style="fill:#ff0000;fill-opacity:1;stroke:none"
       id="rect3820-4"
       width="160"
       height="160"
       x="580"
       y="1532.3622" />
    <path
       style="fill:#ff0000;fill-opacity:1;fill-rule:evenodd;stroke:none"
       d="m 0,1712.3622 0,160 c -87.37346,0 -158.22275,-71.6277 -158.22275,-160 l 158.22275,0 z"
       id="rect2989-0-2"
       inkscape:connector-curvature="0" />
    <path
       style="fill:#ff0000;fill-opacity:1;fill-rule:evenodd;stroke:none"
       d="m 20,1692.3622 0,-160 c 87.37346,0 158.22274,71.6277 158.22274,160 l -158.22274,0 z"
       id="rect2989-9-3"
       inkscape:connector-curvature="0" />
    <path
       style="fill:#ff0000;fill-opacity:1;fill-rule:evenodd;stroke:none"
       d="m 0,1692.3622 -160,0 c 0,-87.3735 71.62769,-158.2228 160,-158.2228 l 0,158.2228 z"
       id="rect2989-4-2"
       inkscape:connector-curvature="0" />
    <path
       style="fill:#ff0000;fill-opacity:1;fill-rule:evenodd;stroke:none"
       d="m 360,1872.3622 c 0,-88.3656 -71.63445,-160 -160,-160 l 160,0 0,160 z"
       id="path3781-8-2"
       inkscape:connector-curvature="0" />
    <path
       style="fill:#ff0000;fill-opacity:1;fill-rule:evenodd;stroke:none"
       d="m 380,1532.3622 c 0,88.3656 71.6345,160 160,160 l -160,0 0,-160 z"
       id="path3781-82-1"
       inkscape:connector-curvature="0" />
    <path
       style="fill:#ff0000;fill-opacity:1;fill-rule:evenodd;stroke:none"
       d="m 380,1872.3622 c 0,-88.3656 71.6345,-160 160,-160 l -160,0 0,160 z"
       id="path3781-4-6"
       inkscape:connector-curvature="0" />
    <rect
       style="fill:#ff0000;fill-opacity:1;stroke:none"
       id="rect3820-4-8"
       width="1600"
       height="1600"
       x="-160"
       y="2972.3621" />
    <rect
       style="fill:#00ff00;fill-opacity:1;stroke:none"
       id="rect3820-4-8-5"
       width="1600"
       height="1600"
       x="-160"
       y="4732.3623" />
    <rect
       style="fill:#0000ff;fill-opacity:1;stroke:none"
       id="rect3820-4-8-7"
       width="1600"
       height="1600"
       x="-160"
       y="6492.3623" />
    <path
       style="fill:#808080;fill-opacity:1;fill-rule:evenodd;stroke:none"
       d="m 360,1052.3622 c 0,88.3655 -71.6344,160 -160,160 l 160,0 0,-160 z"
       id="path3781-6-6"
       inkscape:connector-curvature="0" />
    <path
       style="fill:#808080;fill-opacity:1;fill-rule:evenodd;stroke:none"
       d="m 20,1232.3622 160,0 c 0,87.3734 -71.62769,158.2227 -160,158.2227 l 0,-158.2227 z"
       id="rect2989-1-1"
       inkscape:connector-curvature="0" />
    <rect
       style="fill:#808080;fill-opacity:1;stroke:none"
       id="rect3820-4-89"
       width="160"
       height="160"
       x="580"
       y="1052.3622" />
    <path
       style="fill:#808080;fill-opacity:1;fill-rule:evenodd;stroke:none"
       d="m 0,1232.3622 0,160 c -87.37346,0 -158.22275,-71.6277 -158.22275,-160 l 158.22275,0 z"
       id="rect2989-0-2-2"
       inkscape:connector-curvature="0" />
    <path
       style="fill:#808080;fill-opacity:1;fill-rule:evenodd;stroke:none"
       d="m 20,1212.3622 0,-160 c 87.37346,0 158.22274,71.6277 158.22274,160 l -158.22274,0 z"
       id="rect2989-9-3-7"
       inkscape:connector-curvature="0" />
    <path
       style="fill:#808080;fill-opacity:1;fill-rule:evenodd;stroke:none"
       d="m 0,1212.3622 -160,0 c 0,-87.3734 71.62769,-158.2227 160,-158.2227 l 0,158.2227 z"
       id="rect2989-4-2-9"
       inkscape:connector-curvature="0" />
    <path
       style="fill:#808080;fill-opacity:1;fill-rule:evenodd;stroke:none"
       d="m 360,1392.3622 c 0,-88.3656 -71.6344,-160 -160,-160 l 160,0 0,160 z"
       id="path3781-8-2-5"
       inkscape:connector-curvature="0" />
    <path
       style="fill:#808080;fill-opacity:1;fill-rule:evenodd;stroke:none"
       d="m 380,1052.3622 c 0,88.3656 71.6345,160 160,160 l -160,0 0,-160 z"
       id="path3781-82-1-4"
       inkscape:connector-curvature="0" />
    <path
       style="fill:#808080;fill-opacity:1;fill-rule:evenodd;stroke:none"
       d="m 380,1392.3622 c 0,-88.3656 71.6345,-160 160,-160 l -160,0 0,160 z"
       id="path3781-4-6-3"
       inkscape:connector-curvature="0" />
    <text
       xml:space="preserve"
       style="font-size:184.2190094px;font-style:normal;font-weight:normal;line-height:125%;letter-spacing:0px;word-spacing:0px;fill:#000000;fill-opacity:1;stroke:none;font-family:Sans"
       x="817.75122"
       y="1184.2299"
       id="text4036"
       sodipodi:linespacing="125%"><tspan
         sodipodi:role="line"
         id="tspan4038"
         x="817.75122"
         y="1184.2299">WALKWAY</tspan></text>
    <text
       xml:space="preserve"
       style="font-size:184.2190094px;font-style:normal;font-weight:normal;line-height:125%;letter-spacing:0px;word-spacing:0px;fill:#000000;fill-opacity:1;stroke:none;font-family:Sans"
       x="805.51794"
       y="1666.5686"
       id="text4036-1"
       sodipodi:linespacing="125%"><tspan
         sodipodi:role="line"
         id="tspan4038-2"
         x="805.51794"
         y="1666.5686">ROAD</tspan></text>
    <text
       xml:space="preserve"
       style="font-size:184.2190094px;font-style:normal;font-weight:normal;line-height:125%;letter-spacing:0px;word-spacing:0px;fill:#000000;fill-opacity:1;stroke:none;font-family:Sans"
       x="810.19537"
       y="2146.5686"
       id="text4036-3"
       sodipodi:linespacing="125%"><tspan
         sodipodi:role="line"
         id="tspan4038-3"
         x="810.19537"
         y="2146.5686">GROUND</tspan></text>
    <text
       xml:space="preserve"
       style="font-size:184.2190094px;font-style:normal;font-weight:normal;line-height:125%;letter-spacing:0px;word-spacing:0px;fill:#000000;fill-opacity:1;stroke:none;font-family:Sans"
       x="817.75122"
       y="2624.2297"
       id="text4036-4"
       sodipodi:linespacing="125%"><tspan
         sodipodi:role="line"
         id="tspan4038-1"
         x="817.75122"
         y="2624.2297">BUILDING</tspan></text>
    <rect
       style="fill:#ff0000;fill-opacity:1;stroke:none"
       id="rect3820-4-8-1"
       width="1600"
       height="1600"
       x="2400"
       y="2812.3621" />
    <rect
       style="fill:#ff0000;fill-opacity:1;stroke:none"
       id="rect3820-4-8-3"
       width="1600"
       height="1600"
       x="2400"
       y="1052.3622" />
    <rect
       style="fill:#ff0000;fill-opacity:1;stroke:none"
       id="rect3820-4-8-8"
       width="1600"
       height="1600"
       x="4160"
       y="2812.3621" />
    <rect
       style="fill:#0000ff;fill-opacity:1;stroke:none"
       id="rect3820-4-8-7-7"
       width="1600"
       height="1600"
       x="4160"
       y="1052.3622" />
    <path
       style="fill:#808080;fill-opacity:1;fill-rule:evenodd;stroke:none"
       d="m 4000,2812.3623 0,160 c -87.3735,0 -158.2227,-71.6277 -158.2227,-160 l 158.2227,0 z"
       id="rect2989-0-2-2-4"
       inkscape:connector-curvature="0" />
    <rect
       style="fill:#808080;fill-opacity:1;stroke:none"
       id="rect3820-4-89-2"
       width="1600"
       height="160"
       x="4160"
       y="2812.3621" />
    <rect
       style="fill:#808080;fill-opacity:1;stroke:none"
       id="rect3820-4-89-2-7"
       width="1600"
       height="160"
       x="1052.3622"
       y="-4000"
       transform="matrix(0,1,-1,0,0,0)" />
    <rect
       style="fill:#808080;fill-opacity:1;stroke:none"
       id="rect3820-4-89-2-79"
       width="1440"
       height="160"
       x="4160"
       y="2492.3621" />
    <rect
       style="fill:#808080;fill-opacity:1;stroke:none"
       id="rect3820-4-89-2-79-1"
       width="1440"
       height="160"
       x="1212.3622"
       y="-5760"
       transform="matrix(0,1,-1,0,0,0)" />
    <rect
       style="fill:#808080;fill-opacity:1;stroke:none"
       id="rect3820-4-89-2-79-9"
       width="1440"
       height="160"
       x="4320"
       y="1052.3622" />
    <rect
       style="fill:#808080;fill-opacity:1;stroke:none"
       id="rect3820-4-89-2-79-1-8"
       width="1440"
       height="160"
       x="1052.3622"
       y="-4320"
       transform="matrix(0,1,-1,0,0,0)" />
    <rect
       style="fill:#ff0000;fill-opacity:1;stroke:none"
       id="rect3820-4-8-1-6"
       width="1600"
       height="1600"
       x="2400"
       y="6492.3623" />
    <rect
       style="fill:#0000ff;fill-opacity:1;stroke:none"
       id="rect3820-4-8-7-7-2"
       width="1600"
       height="1600"
       x="4160"
       y="4732.3623" />
    <rect
       style="fill:#808080;fill-opacity:1;stroke:none"
       id="rect3820-4-89-2-79-2"
       width="1440"
       height="160"
       x="4160"
       y="6172.3628" />
    <rect
       style="fill:#808080;fill-opacity:1;stroke:none"
       id="rect3820-4-89-2-79-1-4"
       width="1440"
       height="160"
       x="4892.3623"
       y="-5760"
       transform="matrix(0,1,-1,0,0,0)" />
    <rect
       style="fill:#808080;fill-opacity:1;stroke:none"
       id="rect3820-4-89-2-79-9-8"
       width="1440"
       height="160"
       x="4320"
       y="4732.3623" />
    <rect
       style="fill:#808080;fill-opacity:1;stroke:none"
       id="rect3820-4-89-2-79-1-8-6"
       width="1440"
       height="160"
       x="4732.3623"
       y="-4320"
       transform="matrix(0,1,-1,0,0,0)" />
    <rect
       style="fill:#0000ff;fill-opacity:1;stroke:none"
       id="rect3820-4-8-7-7-2-5"
       width="1600"
       height="1600"
       x="2400"
       y="4732.3623" />
    <rect
       style="fill:#808080;fill-opacity:1;stroke:none"
       id="rect3820-4-89-2-79-2-0"
       width="1440"
       height="160"
       x="2400"
       y="6172.3628" />
    <rect
       style="fill:#808080;fill-opacity:1;stroke:none"
       id="rect3820-4-89-2-79-1-4-9"
       width="1440"
       height="160"
       x="4892.3623"
       y="-4000"
       transform="matrix(0,1,-1,0,0,0)" />
    <rect
       style="fill:#808080;fill-opacity:1;stroke:none"
       id="rect3820-4-89-2-79-9-8-0"
       width="1440"
       height="160"
       x="2560"
       y="4732.3623" />
    <rect
       style="fill:#808080;fill-opacity:1;stroke:none"
       id="rect3820-4-89-2-79-1-8-6-0"
       width="1440"
       height="160"
       x="4732.3623"
       y="-2560"
       transform="matrix(0,1,-1,0,0,0)" />
    <rect
       style="fill:#0000ff;fill-opacity:1;stroke:none"
       id="rect3820-4-8-7-7-2-6"
       width="1600"
       height="1600"
       x="4160"
       y="6492.3628" />
    <rect
       style="fill:#808080;fill-opacity:1;stroke:none"
       id="rect3820-4-89-2-79-2-1"
       width="1440"
       height="160"
       x="4160"
       y="7932.3628" />
    <rect
       style="fill:#808080;fill-opacity:1;stroke:none"
       id="rect3820-4-89-2-79-1-4-3"
       width="1440"
       height="160"
       x="6652.3628"
       y="-5760"
       transform="matrix(0,1,-1,0,0,0)" />
    <rect
       style="fill:#808080;fill-opacity:1;stroke:none"
       id="rect3820-4-89-2-79-9-8-8"
       width="1440"
       height="160"
       x="4320"
       y="6492.3628" />
    <rect
       style="fill:#808080;fill-opacity:1;stroke:none"
       id="rect3820-4-89-2-79-1-8-6-9"
       width="1440"
       height="160"
       x="6492.3628"
       y="-4320"
       transform="matrix(0,1,-1,0,0,0)" />
    <rect
       style="fill:#808080;fill-opacity:1;stroke:none"
       id="rect3820-4-89-4"
       width="160"
       height="160"
       x="3840"
       y="6492.3628" />
    <path
       style="fill:#808080;fill-opacity:1;fill-rule:evenodd;stroke:none"
       d="m 3840,6812.3626 c 0,-88.3656 -71.6344,-160 -160,-160 l 160,0 0,160 z"
       id="path3781-8-2-5-6"
       inkscape:connector-curvature="0" />
    <rect
       style="fill:#808080;fill-opacity:1;stroke:none"
       id="rect3820-4-89-2-79-2-0-0"
       width="1440"
       height="160"
       x="2400"
       y="6492.3628" />
    <rect
       style="fill:#808080;fill-opacity:1;stroke:none"
       id="rect3820-4-89-2-79-2-0-0-6"
       width="1439.9999"
       height="160"
       x="6652.3628"
       y="-4000"
       transform="matrix(0,1,-1,0,0,0)" />
    <rect
       style="fill:#ff0000;fill-opacity:1;stroke:none"
       id="rect3820-4-8-8-4"
       width="1600"
       height="1600"
       x="7840"
       y="2812.3621" />
    <rect
       style="fill:#0000ff;fill-opacity:1;stroke:none"
       id="rect3820-4-8-7-7-9"
       width="1600"
       height="1600"
       x="7840"
       y="1052.3622" />
    <rect
       style="fill:#808080;fill-opacity:1;stroke:none"
       id="rect3820-4-89-2-3"
       width="1600"
       height="160"
       x="7840"
       y="2812.3621" />
    <rect
       style="fill:#808080;fill-opacity:1;stroke:none"
       id="rect3820-4-89-2-79-8"
       width="1440"
       height="160"
       x="7840"
       y="2492.3621" />
    <rect
       style="fill:#808080;fill-opacity:1;stroke:none"
       id="rect3820-4-89-2-79-1-82"
       width="1440"
       height="160"
       x="1212.3623"
       y="-9440"
       transform="matrix(0,1,-1,0,0,0)" />
    <rect
       style="fill:#808080;fill-opacity:1;stroke:none"
       id="rect3820-4-89-2-79-9-9"
       width="1440"
       height="160"
       x="8000"
       y="1052.3622" />
    <rect
       style="fill:#808080;fill-opacity:1;stroke:none"
       id="rect3820-4-89-2-79-1-8-1"
       width="1440"
       height="160"
       x="1052.3622"
       y="-8000"
       transform="matrix(0,1,-1,0,0,0)" />
    <rect
       style="fill:#0000ff;fill-opacity:1;stroke:none"
       id="rect3820-4-8-7-7-9-3"
       width="1600"
       height="1600"
       x="6080"
       y="1052.3622" />
    <rect
       style="fill:#808080;fill-opacity:1;stroke:none"
       id="rect3820-4-89-2-79-8-5"
       width="1440"
       height="160"
       x="6080"
       y="2492.3621" />
    <rect
       style="fill:#808080;fill-opacity:1;stroke:none"
       id="rect3820-4-89-2-79-1-82-9"
       width="1440"
       height="160"
       x="1212.3623"
       y="-7680"
       transform="matrix(0,1,-1,0,0,0)" />
    <rect
       style="fill:#808080;fill-opacity:1;stroke:none"
       id="rect3820-4-89-2-79-9-9-8"
       width="1440"
       height="160"
       x="6240"
       y="1052.3622" />
    <rect
       style="fill:#808080;fill-opacity:1;stroke:none"
       id="rect3820-4-89-2-79-1-8-1-4"
       width="1440"
       height="160"
       x="1052.3622"
       y="-6240"
       transform="matrix(0,1,-1,0,0,0)" />
    <rect
       style="fill:#ff0000;fill-opacity:1;stroke:none"
       id="rect3820-4-8-8-4-0"
       width="1600"
       height="1600"
       x="6080"
       y="2812.3621" />
    <rect
       style="fill:#808080;fill-opacity:1;stroke:none"
       id="rect3820-4-89-2-3-7"
       width="1600"
       height="160"
       x="6080"
       y="2812.3621" />
  </g>
</svg>
